<mxfile host="app.diagrams.net">
  <diagram name="1. Context">
    <mxGraphModel>
      <root>
        <mxCell id="0"/>
        <mxCell id="1" parent="0"/>
        <mxCell id="2" value="👤 IT/Finance User" style="shape=actor;" vertex="1" parent="1">
          <mxGeometry x="100" y="100" width="120" height="80" as="geometry"/>
        </mxCell>
        <mxCell id="3" value="🧠 Finolyzer" style="rounded=1;fillColor=#fff3e0;strokeColor=#fb8c00" vertex="1" parent="1">
          <mxGeometry x="300" y="100" width="180" height="80" as="geometry"/>
        </mxCell>
        <mxCell id="4" value="📂 CSV/API Log Source" style="rounded=1;fillColor=#ede7f6;strokeColor=#512da8" vertex="1" parent="1">
          <mxGeometry x="520" y="100" width="180" height="60" as="geometry"/>
        </mxCell>
        <mxCell id="5" style="endArrow=block;" edge="1" parent="1" source="2" target="3">
          <mxGeometry relative="1" as="geometry"/>
        </mxCell>
        <mxCell id="6" style="endArrow=block;" edge="1" parent="1" source="4" target="3">
          <mxGeometry relative="1" as="geometry"/>
        </mxCell>
      </root>
    </mxGraphModel>
  </diagram>

  <diagram name="2. Containers">
    <mxGraphModel>
      <root>
        <mxCell id="0"/>
        <mxCell id="1" parent="0"/>
        <mxCell id="10" value="🌐 Web UI" style="rounded=1;fillColor=#bbdefb;strokeColor=#1976d2;" vertex="1" parent="1">
          <mxGeometry x="100" y="100" width="160" height="60" as="geometry"/>
        </mxCell>
        <mxCell id="11" value="⚙ App Service Layer" style="rounded=1;fillColor=#ffe082;strokeColor=#f57f17;" vertex="1" parent="1">
          <mxGeometry x="280" y="100" width="160" height="60" as="geometry"/>
        </mxCell>
        <mxCell id="12" value="📦 Domain Layer" style="rounded=1;fillColor=#d1c4e9;strokeColor=#7b1fa2;" vertex="1" parent="1">
          <mxGeometry x="460" y="100" width="160" height="60" as="geometry"/>
        </mxCell>
        <mxCell id="13" value="🗃 Database" style="shape=cylinder;fillColor=#c8e6c9;strokeColor=#2e7d32;" vertex="1" parent="1">
          <mxGeometry x="640" y="100" width="160" height="60" as="geometry"/>
        </mxCell>
        <mxCell id="14" value="📤 Export Service (PDF/Excel)" style="rounded=1;fillColor=#ffccbc;strokeColor=#e64a19;" vertex="1" parent="1">
          <mxGeometry x="820" y="100" width="200" height="60" as="geometry"/>
        </mxCell>
        <mxCell id="15" style="endArrow=block;" edge="1" parent="1" source="10" target="11">
          <mxGeometry relative="1" as="geometry"/>
        </mxCell>
        <mxCell id="16" style="endArrow=block;" edge="1" parent="1" source="11" target="12">
          <mxGeometry relative="1" as="geometry"/>
        </mxCell>
        <mxCell id="17" style="endArrow=block;" edge="1" parent="1" source="12" target="13">
          <mxGeometry relative="1" as="geometry"/>
        </mxCell>
        <mxCell id="18" style="endArrow=block;" edge="1" parent="1" source="11" target="14">
          <mxGeometry relative="1" as="geometry"/>
        </mxCell>
      </root>
    </mxGraphModel>
  </diagram>

  <diagram name="3. Components">
    <mxGraphModel>
      <root>
        <mxCell id="0"/>
        <mxCell id="1" parent="0"/>
        <mxCell id="c1" value="📁 Portfolio" style="rounded=1;fillColor=#e1f5fe;strokeColor=#039be5;" vertex="1" parent="1">
          <mxGeometry x="60" y="100" width="140" height="50" as="geometry"/>
        </mxCell>
        <mxCell id="c2" value="🖥 ApplicationSystem" style="rounded=1;fillColor=#ede7f6;strokeColor=#5e35b1;" vertex="1" parent="1">
          <mxGeometry x="240" y="100" width="160" height="50" as="geometry"/>
        </mxCell>
        <mxCell id="c3" value="📎 SystemDependency" style="rounded=1;fillColor=#fff8e1;strokeColor=#fdd835;" vertex="1" parent="1">
          <mxGeometry x="420" y="100" width="180" height="50" as="geometry"/>
        </mxCell>
        <mxCell id="c4" value="🧱 Server" style="rounded=1;fillColor=#e8f5e9;strokeColor=#66bb6a;" vertex="1" parent="1">
          <mxGeometry x="640" y="80" width="120" height="40" as="geometry"/>
        </mxCell>
        <mxCell id="c5" value="🔌 IntegrationService" style="rounded=1;fillColor=#fff3e0;strokeColor=#fb8c00;" vertex="1" parent="1">
          <mxGeometry x="640" y="130" width="160" height="40" as="geometry"/>
        </mxCell>
        <mxCell id="c6" value="👨‍💼 Resource" style="rounded=1;fillColor=#f3e5f5;strokeColor=#ba68c8;" vertex="1" parent="1">
          <mxGeometry x="640" y="180" width="120" height="40" as="geometry"/>
        </mxCell>
        <mxCell id="c7" style="endArrow=block;" edge="1" parent="1" source="c1" target="c2">
          <mxGeometry relative="1" as="geometry"/>
        </mxCell>
        <mxCell id="c8" style="endArrow=block;" edge="1" parent="1" source="c2" target="c3">
          <mxGeometry relative="1" as="geometry"/>
        </mxCell>
        <mxCell id="c9" style="endArrow=block;" edge="1" parent="1" source="c3" target="c4"/>
        <mxCell id="c10" style="endArrow=block;" edge="1" parent="1" source="c3" target="c5"/>
        <mxCell id="c11" style="endArrow=block;" edge="1" parent="1" source="c3" target="c6"/>
      </root>
    </mxGraphModel>
  </diagram>

  <diagram name="4. Code">
    <mxGraphModel>
      <root>
        <mxCell id="0"/>
        <mxCell id="1" parent="0"/>
        <mxCell id="1a" value="BaseCostEntity : ICost" style="rounded=1;whiteSpace=wrap;fillColor=#cfd8dc;strokeColor=#455a64;" vertex="1" parent="1">
          <mxGeometry x="100" y="80" width="200" height="60" as="geometry"/>
        </mxCell>
        <mxCell id="1b" value="Server : BaseCostEntity" style="rounded=1;whiteSpace=wrap;fillColor=#b3e5fc;strokeColor=#0288d1;" vertex="1" parent="1">
          <mxGeometry x="320" y="40" width="160" height="50" as="geometry"/>
        </mxCell>
        <mxCell id="1c" value="Resource : BaseCostEntity" style="rounded=1;whiteSpace=wrap;fillColor=#d1c4e9;strokeColor=#7b1fa2;" vertex="1" parent="1">
          <mxGeometry x="320" y="100" width="160" height="50" as="geometry"/>
        </mxCell>
        <mxCell id="e1" style="endArrow=block;" edge="1" parent="1" source="1a" target="1b"/>
        <mxCell id="e2" style="endArrow=block;" edge="1" parent="1" source="1a" target="1c"/>
      </root>
    </mxGraphModel>
  </diagram>

  <diagram name="5. System Architecture">
    <mxGraphModel>
      <root>
        <mxCell id="0" />
        <mxCell id="1" parent="0" />
        <mxCell id="s1" value="🧠 Finolyzer System" style="rounded=1;fillColor=#e1f5fe;strokeColor=#039be5;" vertex="1" parent="1">
          <mxGeometry x="200" y="150" width="300" height="80" as="geometry"/>
        </mxCell>
        <mxCell id="s2" value="📊 Cost Reports" style="rounded=1;fillColor=#fffde7;strokeColor=#fbc02d;" vertex="1" parent="1">
          <mxGeometry x="550" y="150" width="180" height="60" as="geometry"/>
        </mxCell>
        <mxCell id="ar1" style="endArrow=block;" edge="1" parent="1" source="s1" target="s2"/>
      </root>
    </mxGraphModel>
  </diagram>

  <diagram name="6. Flow Diagram">
    <mxGraphModel>
      <root>
        <mxCell id="0" />
        <mxCell id="1" parent="0" />
        <mxCell id="f1" value="Login" style="rounded=1;fillColor=#eee;" vertex="1" parent="1">
          <mxGeometry x="80" y="100" width="100" height="40" as="geometry"/>
        </mxCell>
        <mxCell id="f2" value="Select System" style="rounded=1;fillColor=#e3f2fd;" vertex="1" parent="1">
          <mxGeometry x="210" y="100" width="120" height="40" as="geometry"/>
        </mxCell>
        <mxCell id="f3" value="Calculation Engine" style="rounded=1;fillColor=#e8f5e9;" vertex="1" parent="1">
          <mxGeometry x="360" y="100" width="160" height="40" as="geometry"/>
        </mxCell>
        <mxCell id="f4" value="Cost Summary" style="rounded=1;fillColor=#fff3e0;" vertex="1" parent="1">
          <mxGeometry x="540" y="100" width="140" height="40" as="geometry"/>
        </mxCell>
        <mxCell id="ar1" style="endArrow=block;" edge="1" parent="1" source="f1" target="f2"/>
        <mxCell id="ar2" style="endArrow=block;" edge="1" parent="1" source="f2" target="f3"/>
        <mxCell id="ar3" style="endArrow=block;" edge="1" parent="1" source="f3" target="f4"/>
      </root>
    </mxGraphModel>
  </diagram>
</mxfile>